<svg width="500" height="500" viewBox="0 0 500 500" fill="none" xmlns="http://www.w3.org/2000/svg">
<g clip-path="url(#clip0_2001_38)">
<path d="M433.333 0H66.6667C29.8477 0 0 29.8477 0 66.6667V433.333C0 470.152 29.8477 500 66.6667 500H433.333C470.152 500 500 470.152 500 433.333V66.6667C500 29.8477 470.152 0 433.333 0Z" fill="#E1E1E1"/>
<rect x="108.5" y="59.5" width="283" height="381" rx="45.5" fill="white" stroke="black"/>
<rect x="150" y="110" width="100" height="24" rx="6" fill="#D9D9D9"/>
<rect x="150" y="154" width="73" height="20" rx="6" fill="#D9D9D9"/>
<rect x="230" y="154" width="72" height="20" rx="6" fill="#D9D9D9"/>
<rect x="309" y="154" width="48" height="20" rx="6" fill="#D9D9D9"/>
<rect x="150" y="187" width="16" height="20" rx="6" fill="#98EEB4"/>
<rect x="173" y="187" width="131" height="20" rx="6" fill="#D9D9D9"/>
<rect x="150" y="220" width="73" height="20" rx="6" fill="#D9D9D9"/>
<rect x="230" y="220" width="72" height="20" rx="6" fill="#D9D9D9"/>
<rect x="309" y="220" width="48" height="20" rx="6" fill="#D9D9D9"/>
<rect x="150" y="250" width="34" height="20" rx="6" fill="#D9D9D9"/>
<rect x="191" y="250" width="27" height="20" rx="6" fill="#98EEB4"/>
<rect x="225" y="250" width="34" height="20" rx="6" fill="#98EEB4"/>
<rect x="266" y="250" width="27" height="20" rx="6" fill="#D9D9D9"/>
<rect x="300" y="250" width="48" height="20" rx="6" fill="#D9D9D9"/>
<rect x="257" y="110" width="58" height="24" rx="6" fill="#98EEB4"/>
<rect x="150.5" y="316.5" width="206" height="76" rx="5.5" fill="#D9D9D9" stroke="black"/>
<rect x="150.5" y="345.5" width="206" height="15" fill="#98EEB4" stroke="black"/>
<rect x="0.5" y="-0.5" width="206" height="15" transform="matrix(1 0 0 -1 150 376)" fill="#E9BC68" stroke="black"/>
<rect x="158.5" y="351.5" width="71" height="3" fill="black" stroke="black"/>
<rect x="158.5" y="367.5" width="113" height="3" fill="black" stroke="black"/>
<path d="M312.875 155.25V157.562C311.292 157.688 309.958 158.125 308.875 158.875C307.792 159.625 306.833 160.771 306 162.312C305.75 162.812 304.438 166.042 302.062 172L275.5 241.938H273.062L252.062 187.312L228.938 241.938H226.625L198.75 172.75C195.917 165.792 193.938 161.583 192.812 160.125C191.688 158.667 189.792 157.812 187.125 157.562V155.25H223.875V157.562C220.917 157.646 218.938 158.104 217.938 158.938C216.979 159.729 216.5 160.729 216.5 161.938C216.5 163.521 217.521 166.875 219.562 172L236.188 213.125L249.5 181L246 172C244.083 167.083 242.604 163.812 241.562 162.188C240.521 160.521 239.312 159.333 237.938 158.625C236.604 157.917 234.625 157.562 232 157.562V155.25H273.062V157.562C270.188 157.604 268.125 157.833 266.875 158.25C266 158.542 265.312 159.042 264.812 159.75C264.312 160.417 264.062 161.188 264.062 162.062C264.062 163.021 265 165.958 266.875 170.875L282.312 211L296.125 174.688C297.583 170.938 298.479 168.375 298.812 167C299.146 165.625 299.312 164.354 299.312 163.188C299.312 161.479 298.729 160.146 297.562 159.188C296.396 158.188 294.167 157.646 290.875 157.562V155.25H312.875Z" fill="black"/>
</g>
<defs>
<clipPath id="clip0_2001_38">
<rect width="500" height="500" fill="white"/>
</clipPath>
</defs>
</svg>
